<svg width="50" height="50" viewBox="0 0 50 50" fill="none" xmlns="http://www.w3.org/2000/svg">
<path d="M25 16.9293C20.5559 16.9293 16.9291 20.5561 16.9291 25.0002C16.9291 29.4444 20.5559 33.0711 25 33.0711C29.4442 33.0711 33.0709 29.4444 33.0709 25.0002C33.0709 20.5561 29.4442 16.9293 25 16.9293ZM49.2067 25.0002C49.2067 21.6581 49.237 18.3461 49.0493 15.01C48.8616 11.135 47.9776 7.69594 45.144 4.86235C42.3043 2.0227 38.8713 1.14477 34.9963 0.957074C31.6541 0.769379 28.3422 0.799652 25.0061 0.799652C21.6639 0.799652 18.352 0.769379 15.0159 0.957074C11.1409 1.14477 7.7018 2.02875 4.86821 4.86235C2.02856 7.702 1.15063 11.135 0.962934 15.01C0.775238 18.3522 0.805512 21.6641 0.805512 25.0002C0.805512 28.3364 0.775238 31.6543 0.962934 34.9905C1.15063 38.8655 2.03461 42.3045 4.86821 45.1381C7.70786 47.9778 11.1409 48.8557 15.0159 49.0434C18.3581 49.2311 21.67 49.2008 25.0061 49.2008C28.3483 49.2008 31.6602 49.2311 34.9963 49.0434C38.8713 48.8557 42.3104 47.9717 45.144 45.1381C47.9836 42.2985 48.8616 38.8655 49.0493 34.9905C49.243 31.6543 49.2067 28.3424 49.2067 25.0002V25.0002ZM25 37.4184C18.128 37.4184 12.5819 31.8723 12.5819 25.0002C12.5819 18.1282 18.128 12.5821 25 12.5821C31.8721 12.5821 37.4182 18.1282 37.4182 25.0002C37.4182 31.8723 31.8721 37.4184 25 37.4184ZM37.9268 14.9737C36.3223 14.9737 35.0266 13.678 35.0266 12.0735C35.0266 10.469 36.3223 9.17329 37.9268 9.17329C39.5313 9.17329 40.827 10.469 40.827 12.0735C40.8275 12.4545 40.7528 12.8318 40.6072 13.1839C40.4616 13.536 40.248 13.8559 39.9786 14.1253C39.7092 14.3947 39.3893 14.6083 39.0372 14.7539C38.6851 14.8995 38.3078 14.9742 37.9268 14.9737V14.9737Z" fill="#9F9F9F"/>
</svg>
