<svg width="50" height="50" viewBox="0 0 50 50" fill="none" xmlns="http://www.w3.org/2000/svg">
<path fill-rule="evenodd" clip-rule="evenodd" d="M0.250001 4.38551C0.250001 3.2887 0.685704 2.23682 1.46126 1.46127C2.23682 0.685709 3.2887 0.250006 4.3855 0.250006H45.61C46.1535 0.249118 46.6919 0.355447 47.1943 0.562906C47.6967 0.770364 48.1533 1.07488 48.5378 1.45901C48.9224 1.84315 49.2274 2.29936 49.4354 2.80153C49.6434 3.3037 49.7503 3.84196 49.75 4.38551V45.61C49.7506 46.1537 49.644 46.6921 49.4363 47.1945C49.2286 47.6969 48.9239 48.1534 48.5395 48.538C48.1552 48.9225 47.6989 49.2274 47.1966 49.4354C46.6943 49.6434 46.1559 49.7503 45.6122 49.75H4.3855C3.84223 49.75 3.30428 49.643 2.80239 49.435C2.3005 49.227 1.84451 48.9222 1.46046 48.538C1.07642 48.1537 0.771847 47.6975 0.564151 47.1955C0.356455 46.6935 0.249705 46.1555 0.250001 45.6123V4.38551ZM19.843 19.123H26.5458V22.489C27.5133 20.554 29.9882 18.8125 33.7075 18.8125C40.8377 18.8125 42.5275 22.6668 42.5275 29.7385V42.838H35.3118V31.3495C35.3118 27.322 34.3442 25.0495 31.8872 25.0495C28.4785 25.0495 27.061 27.4998 27.061 31.3495V42.838H19.843V19.123ZM7.468 42.5298H14.686V18.8125H7.468V42.5275V42.5298ZM15.7188 11.077C15.7324 11.695 15.6224 12.3095 15.3953 12.8845C15.1682 13.4594 14.8285 13.9832 14.3963 14.4251C13.964 14.867 13.4478 15.2181 12.878 15.4578C12.3082 15.6975 11.6963 15.8209 11.0781 15.8209C10.46 15.8209 9.84803 15.6975 9.27823 15.4578C8.70843 15.2181 8.19225 14.867 7.75998 14.4251C7.32771 13.9832 6.98806 13.4594 6.76096 12.8845C6.53386 12.3095 6.42389 11.695 6.4375 11.077C6.46421 9.86393 6.96487 8.70954 7.83224 7.86105C8.69962 7.01256 9.86475 6.53745 11.0781 6.53745C12.2915 6.53745 13.4566 7.01256 14.324 7.86105C15.1914 8.70954 15.692 9.86393 15.7188 11.077V11.077Z" fill="#9F9F9F"/>
</svg>
