<svg width="629" height="445" viewBox="0 0 629 445" fill="none" xmlns="http://www.w3.org/2000/svg">
<g clip-path="url(#clip0_120_2)">
<path d="M563.826 315.975H89.5054C89.5054 315.975 116.154 305.693 145.12 277.455C174.087 249.362 185.528 242.267 221.157 235.605C256.785 228.944 250.992 207.512 294.006 203.313C337.021 199.113 364.394 179.274 374.243 170.151C384.236 161.028 428.844 173.337 438.837 209.829C448.831 246.321 468.672 234.012 489.383 260.368C509.949 287.013 558.033 280.351 563.826 315.975Z" fill="#5E732F"/>
<path d="M433.623 342.33H598.296C598.296 342.33 617.848 272.677 607.565 265.581C597.282 258.34 588.303 287.592 578.454 252.403C568.606 217.359 560.93 174.351 529.501 180.143C498.073 185.936 495.176 274.704 473.452 278.469C451.727 282.234 430.147 316.264 433.623 342.33Z" fill="#79943C"/>
<path d="M418.126 342.33H585.84" stroke="#292E4A" stroke-miterlimit="10"/>
<path d="M56.1943 83.5552H245.488C245.488 83.5552 217.536 75.4458 212.901 65.454C208.267 55.4621 204.936 49.2353 195.666 48.3664C186.397 47.6424 182.052 49.0905 173.652 36.3472C165.107 23.604 152.796 18.5357 142.369 22.0111C131.941 25.6313 123.83 56.1862 107.175 59.6616C90.5192 63.137 85.1605 60.096 79.6569 63.137C74.1534 66.178 61.2634 82.3967 56.1943 83.5552Z" fill="#A6B1ED"/>
<path d="M414.65 80.659H605.827C605.827 80.659 610.462 61.9786 598.73 56.1862C586.999 50.3938 584.392 61.1097 573.964 54.1588C563.392 47.0632 577.295 4.77875 558.467 0.289652C539.495 -4.19945 515.018 43.8774 492.28 42.5741C469.686 41.2708 462.445 38.3746 454.044 45.0358C445.499 51.6971 423.34 79.5005 414.65 80.659Z" fill="#A6B1ED"/>
<path d="M491.266 58.5031H379.746V201.141H491.266V58.5031Z" fill="#FF7700"/>
<path d="M396.257 84.1344H460.996" stroke="white" stroke-width="0.9773" stroke-miterlimit="10"/>
<path d="M396.257 97.1672H474.755" stroke="white" stroke-width="0.9773" stroke-miterlimit="10"/>
<path d="M396.257 110.2H474.755" stroke="white" stroke-width="0.9773" stroke-miterlimit="10"/>
<path d="M396.257 123.233H474.755" stroke="white" stroke-width="0.9773" stroke-miterlimit="10"/>
<path d="M396.257 136.266H474.755" stroke="white" stroke-width="0.9773" stroke-miterlimit="10"/>
<path d="M396.257 149.299H474.755" stroke="white" stroke-width="0.9773" stroke-miterlimit="10"/>
<path d="M396.257 162.332H474.755" stroke="white" stroke-width="0.9773" stroke-miterlimit="10"/>
<path d="M396.257 175.22H474.755" stroke="white" stroke-width="0.9773" stroke-miterlimit="10"/>
<path d="M358.166 174.351V144.375L339.338 144.954C338.18 140.465 336.297 136.266 334.125 132.356L347.739 119.468L326.593 98.3258L313.703 111.938C309.793 109.621 305.448 107.883 301.103 106.725L301.682 87.8995H271.703L272.282 106.725C267.792 107.883 263.592 109.766 259.682 111.938L246.792 98.3258L225.646 119.468L239.26 132.356C236.943 136.266 235.205 140.61 234.047 144.954L215.219 144.375V174.351L234.047 173.772C235.205 178.261 237.088 182.46 239.26 186.37L225.646 199.258L246.792 220.4L259.682 206.788C263.592 209.105 267.937 210.843 272.282 212.001L271.703 230.827H301.682L301.103 212.001C305.593 210.843 309.793 208.96 313.703 206.788L326.593 220.4L347.739 199.258L334.125 186.37C336.442 182.46 338.18 178.116 339.338 173.772L358.166 174.351ZM286.62 177.971C276.337 177.971 268.082 169.717 268.082 159.435C268.082 149.154 276.337 140.9 286.62 140.9C296.903 140.9 305.158 149.154 305.158 159.435C305.158 169.717 296.903 177.971 286.62 177.971Z" fill="#6470B5"/>
<path d="M286.62 122.075C265.909 122.075 249.254 138.872 249.254 159.435C249.254 179.998 266.054 196.796 286.62 196.796C307.186 196.796 323.986 179.998 323.986 159.435C323.986 138.872 307.331 122.075 286.62 122.075ZM286.62 177.971C276.337 177.971 268.082 169.717 268.082 159.435C268.082 149.154 276.337 140.9 286.62 140.9C296.903 140.9 305.158 149.154 305.158 159.435C305.158 169.717 296.903 177.971 286.62 177.971Z" fill="#292E4A"/>
<path d="M363.525 57.055V38.809L352.084 39.0986C351.359 36.3472 350.201 33.7407 348.897 31.4237L357.153 23.604L344.263 10.7159L336.442 18.9701C333.98 17.6668 331.518 16.5083 328.766 15.7843L329.055 4.3443H310.807L311.386 15.9291C308.634 16.6531 306.027 17.8116 303.71 19.1149L295.889 10.8607L282.999 23.7488L291.255 31.5685C289.951 34.0303 288.792 36.492 288.068 39.2434L276.627 38.9538V57.1998L288.068 56.9102C288.792 59.6616 289.951 62.2682 291.255 64.5851L282.999 72.4048L295.889 85.2929L303.71 77.0387C306.172 78.342 308.634 79.5005 311.386 80.2246L311.096 91.6645H329.345L329.055 80.2246C331.807 79.5005 334.414 78.342 336.731 77.0387L344.552 85.2929L357.442 72.4048L349.187 64.5851C350.49 62.1233 351.649 59.6616 352.373 56.9102L363.525 57.055ZM320.076 59.2272C313.848 59.2272 308.779 54.1588 308.779 47.932C308.779 41.7052 313.848 36.6368 320.076 36.6368C326.304 36.6368 331.373 41.7052 331.373 47.932C331.373 54.1588 326.304 59.2272 320.076 59.2272Z" fill="#A6B1ED"/>
<path d="M326.159 292.95C324.421 299.466 320.945 307.865 320.076 315.251C319.207 322.636 333.111 326.98 334.849 323.215C335.138 322.781 331.952 320.174 334.559 313.223C337.745 304.969 339.338 301.349 337.89 295.701C336.731 291.212 327.317 288.895 326.159 292.95Z" fill="#CC9B74"/>
<path d="M436.52 178.84C436.52 178.84 414.65 190.135 400.602 188.687C386.553 187.239 352.084 183.039 339.338 195.927C326.738 208.816 276.047 271.084 278.51 275.573C280.972 280.207 337.311 324.808 349.187 320.898C361.208 316.988 413.926 263.264 427.251 255.155C440.575 247.045 460.562 237.198 460.562 237.198L436.52 178.84Z" fill="#CC9B74"/>
<path d="M218.55 165.228C218.55 165.228 256.35 185.356 272.572 186.515C288.793 187.528 317.179 185.067 337.601 190.714C358.022 196.362 340.497 206.209 347.739 213.16C354.98 220.255 405.526 249.652 413.347 254.72C421.168 259.788 423.196 266.45 417.982 270.939C412.768 275.428 406.395 274.125 396.547 268.477C386.698 262.829 368.015 249.507 367.001 252.258C365.987 255.01 398.719 275.573 403.209 279.338C407.843 283.248 408.423 289.474 401.036 293.384C393.65 297.294 387.278 297.584 381.05 293.384C374.677 289.185 353.242 273.401 350.78 275.862C348.318 278.324 362.077 285.709 370.767 292.371C379.022 298.453 385.25 300.48 385.829 305.404C386.553 310.327 378.877 319.016 366.132 314.961C358.601 312.499 338.759 297.729 335.718 299.901C332.676 302.073 364.829 314.961 364.394 320.029C363.96 325.242 357.153 333.786 337.745 324.518C325.869 318.871 253.888 268.187 246.502 262.685C238.971 257.037 175.535 223.586 175.535 223.586L218.55 165.228Z" fill="#F9CCA9"/>
<path d="M371.781 234.302C371.781 234.302 369.318 245.163 360.918 249.941C361.787 256.313 357.008 268.767 346.87 272.242C346.001 279.338 339.918 290.923 332.676 293.384" stroke="#CC9B74" stroke-width="0.9715" stroke-miterlimit="10" stroke-linecap="round" stroke-linejoin="round"/>
<path d="M290.82 199.113C290.675 196.072 305.158 194.624 315.007 191.438C324.855 188.108 341.945 182.895 355.994 183.474C370.043 184.053 387.133 187.818 398.864 188.397C410.595 188.977 401.905 202.154 390.609 205.485C379.312 208.816 354.691 217.214 347.594 213.16C340.497 209.105 334.125 207.512 323.117 208.526C312.11 209.54 291.255 206.499 290.82 199.113Z" fill="#CC9B74"/>
<path d="M582.004 237.097C601.836 229.389 603.113 185.07 584.856 138.106C566.599 91.1419 535.721 59.3183 515.889 67.0258C496.057 74.7332 494.781 119.053 513.038 166.017C531.295 212.981 562.172 244.804 582.004 237.097Z" fill="#292E4A"/>
<path d="M561.509 206.064L591.923 192.452" stroke="#6470B5" stroke-width="0.9715" stroke-miterlimit="10"/>
<path d="M451.148 164.359C451.148 164.359 440.575 168.558 436.375 169.862C433.479 170.731 430.147 172.034 428.265 172.758C427.541 173.048 427.106 173.916 427.541 174.64C430.292 180.722 441.444 205.919 444.196 212.291C447.238 219.531 455.638 242.411 456.796 243.715C457.955 245.018 482.866 235.026 482.866 235.026L451.148 164.359Z" fill="#292E4A"/>
<path d="M445.789 161.608L545.433 104.987C545.433 104.987 555.281 118.309 554.557 132.646C553.833 146.837 566.868 154.657 566.578 179.274C566.433 190.57 575.413 200.706 575.413 200.706L480.404 241.832L445.789 161.608Z" fill="#6470B5"/>
<path d="M556.585 97.8913L445.789 161.608" stroke="white" stroke-width="0.9715" stroke-miterlimit="10"/>
<path d="M460.562 195.783L514.149 171.31" stroke="#292E4A" stroke-width="0.9715" stroke-miterlimit="10"/>
<path d="M476.928 178.84C476.928 181.881 474.466 184.343 471.424 184.343C468.383 184.343 465.921 181.881 465.921 178.84C465.921 175.799 468.383 173.337 471.424 173.337C474.466 173.337 476.928 175.799 476.928 178.84Z" fill="white"/>
<path d="M470.41 177.392C470.41 177.681 470.121 177.971 469.831 177.971C469.541 177.971 469.252 177.681 469.252 177.392C469.252 177.102 469.541 176.813 469.831 176.813C470.121 176.813 470.41 176.957 470.41 177.392Z" fill="#292E4A"/>
<path d="M473.597 177.392C473.597 177.681 473.307 177.971 473.017 177.971C472.728 177.971 472.438 177.681 472.438 177.392C472.438 177.102 472.728 176.813 473.017 176.813C473.307 176.813 473.597 176.957 473.597 177.392Z" fill="#292E4A"/>
<path d="M470.41 180.288C470.41 180.578 470.121 180.867 469.831 180.867C469.541 180.867 469.252 180.578 469.252 180.288C469.252 179.998 469.541 179.709 469.831 179.709C470.121 179.709 470.41 179.998 470.41 180.288Z" fill="#292E4A"/>
<path d="M473.597 180.288C473.597 180.578 473.307 180.867 473.017 180.867C472.728 180.867 472.438 180.578 472.438 180.288C472.438 179.998 472.728 179.709 473.017 179.709C473.307 179.709 473.597 179.998 473.597 180.288Z" fill="#292E4A"/>
<path d="M492.859 175.364C495.899 175.364 498.363 172.901 498.363 169.862C498.363 166.823 495.899 164.359 492.859 164.359C489.819 164.359 487.355 166.823 487.355 169.862C487.355 172.901 489.819 175.364 492.859 175.364Z" fill="white"/>
<path d="M491.7 168.414C491.7 168.703 491.411 168.993 491.121 168.993C490.831 168.993 490.542 168.703 490.542 168.414C490.542 168.124 490.831 167.834 491.121 167.834C491.556 167.834 491.7 168.124 491.7 168.414Z" fill="#292E4A"/>
<path d="M494.887 168.414C494.887 168.703 494.597 168.993 494.307 168.993C494.018 168.993 493.728 168.703 493.728 168.414C493.728 168.124 494.018 167.834 494.307 167.834C494.742 167.834 494.887 168.124 494.887 168.414Z" fill="#292E4A"/>
<path d="M491.7 171.31C491.7 171.599 491.411 171.889 491.121 171.889C490.831 171.889 490.542 171.599 490.542 171.31C490.542 171.02 490.831 170.731 491.121 170.731C491.556 170.731 491.7 171.02 491.7 171.31Z" fill="#292E4A"/>
<path d="M494.887 171.31C494.887 171.599 494.597 171.889 494.307 171.889C494.018 171.889 493.728 171.599 493.728 171.31C493.728 171.02 494.018 170.731 494.307 170.731C494.742 170.731 494.887 171.02 494.887 171.31Z" fill="#292E4A"/>
<path d="M160.653 165.965C178.91 119.001 177.634 74.681 157.802 66.9736C137.97 59.2661 107.092 91.0897 88.8351 138.054C70.5779 185.017 71.8547 229.337 91.6867 237.045C111.519 244.752 142.396 212.929 160.653 165.965Z" fill="#292E4A"/>
<path d="M112.099 206.064L81.6846 192.452" stroke="#FF7700" stroke-width="0.9715" stroke-miterlimit="10" stroke-linecap="round" stroke-linejoin="round"/>
<path d="M222.895 163.2C222.895 163.2 232.743 168.703 236.654 170.441C239.116 171.599 242.736 173.192 244.619 173.916C245.343 174.206 245.778 175.075 245.343 175.799C242.592 181.881 232.164 205.774 229.412 212.146C226.371 219.387 214.06 245.452 212.901 246.756C211.743 248.059 190.742 234.881 190.742 234.881L222.895 163.2Z" fill="#995417"/>
<path d="M227.674 161.608L128.03 104.987C128.03 104.987 127.161 123.233 112.968 131.198C100.512 138.293 88.057 152.774 98.0503 175.364C104.423 189.701 98.0503 200.561 98.0503 200.561L193.059 241.687L227.674 161.608Z" fill="#FF7700"/>
<path d="M117.023 97.8913L227.674 161.608" stroke="white" stroke-width="0.9715" stroke-miterlimit="10" stroke-linecap="round" stroke-linejoin="round"/>
<path d="M213.046 195.783L159.459 171.31" stroke="#995417" stroke-width="0.9715" stroke-miterlimit="10"/>
<path d="M196.68 178.84C196.68 181.881 199.142 184.343 202.184 184.343C205.225 184.343 207.687 181.881 207.687 178.84C207.687 175.799 205.225 173.337 202.184 173.337C199.142 173.337 196.68 175.799 196.68 178.84Z" fill="white"/>
<path d="M203.198 177.392C203.198 177.681 203.487 177.971 203.777 177.971C204.066 177.971 204.356 177.681 204.356 177.392C204.356 177.102 204.066 176.813 203.777 176.813C203.487 176.813 203.198 176.957 203.198 177.392Z" fill="#292E4A"/>
<path d="M200.011 177.392C200.011 177.681 200.301 177.971 200.591 177.971C200.88 177.971 201.17 177.681 201.17 177.392C201.17 177.102 200.88 176.813 200.591 176.813C200.301 176.813 200.011 176.957 200.011 177.392Z" fill="#292E4A"/>
<path d="M203.198 180.288C203.198 180.578 203.487 180.867 203.777 180.867C204.066 180.867 204.356 180.578 204.356 180.288C204.356 179.998 204.066 179.709 203.777 179.709C203.487 179.709 203.198 179.998 203.198 180.288Z" fill="#292E4A"/>
<path d="M200.011 180.288C200.011 180.578 200.301 180.867 200.591 180.867C200.88 180.867 201.17 180.578 201.17 180.288C201.17 179.998 200.88 179.709 200.591 179.709C200.301 179.709 200.011 179.998 200.011 180.288Z" fill="#292E4A"/>
<path d="M180.749 175.364C183.788 175.364 186.252 172.901 186.252 169.862C186.252 166.823 183.788 164.359 180.749 164.359C177.709 164.359 175.245 166.823 175.245 169.862C175.245 172.901 177.709 175.364 180.749 175.364Z" fill="white"/>
<path d="M181.907 168.414C181.907 168.703 182.197 168.993 182.487 168.993C182.776 168.993 183.066 168.703 183.066 168.414C183.066 168.124 182.776 167.834 182.487 167.834C182.052 167.834 181.907 168.124 181.907 168.414Z" fill="#292E4A"/>
<path d="M178.721 168.414C178.721 168.703 179.011 168.993 179.3 168.993C179.59 168.993 179.88 168.703 179.88 168.414C179.88 168.124 179.59 167.834 179.3 167.834C178.866 167.834 178.721 168.124 178.721 168.414Z" fill="#292E4A"/>
<path d="M181.907 171.31C181.907 171.599 182.197 171.889 182.487 171.889C182.776 171.889 183.066 171.599 183.066 171.31C183.066 171.02 182.776 170.731 182.487 170.731C182.052 170.731 181.907 171.02 181.907 171.31Z" fill="#292E4A"/>
<path d="M178.721 171.31C178.721 171.599 179.011 171.889 179.3 171.889C179.59 171.889 179.88 171.599 179.88 171.31C179.88 171.02 179.59 170.731 179.3 170.731C178.866 170.731 178.721 171.02 178.721 171.31Z" fill="#292E4A"/>
<path d="M251.571 267.898C251.571 260.368 258.088 236.474 264.461 237.198C270.834 237.922 274.744 242.556 274.02 250.376C273.296 258.051 266.054 274.269 267.502 276.876C268.951 279.483 272.861 280.207 270.834 281.51C268.661 282.958 251.571 279.193 251.571 267.898Z" fill="#CC9B74"/>
<path d="M277.496 290.199C275.178 286.144 274.889 278.759 277.496 270.939C280.103 263.264 286.91 245.597 289.227 245.163C294.441 244.004 300.669 248.928 302.407 255.444C304 261.961 289.372 290.633 291.544 292.805C293.717 294.977 295.02 295.557 294.441 296.57C292.413 300.19 280.972 296.281 277.496 290.199Z" fill="#CC9B74"/>
<path d="M299.22 303.521C298.641 299.466 305.303 273.545 310.083 272.387C314.862 271.373 320.221 277.021 320.945 282.668C321.669 288.316 313.993 307.431 315.152 309.024C316.021 310.472 318.193 311.63 318.048 312.21C316.745 317.278 300.524 312.354 299.22 303.521Z" fill="#CC9B74"/>
<path d="M482.866 364.051H597.137C597.137 364.051 617.703 310.472 617.124 292.95C616.545 275.428 607.131 280.496 612.779 257.037C618.427 233.578 627.841 194.19 610.896 191.728C594.096 189.266 561.509 269.201 545.867 274.125C530.225 279.193 515.308 289.185 502.128 312.789C489.093 336.682 482.866 364.051 482.866 364.051Z" fill="#8EAD46"/>
<path d="M612.779 192.162C612.779 192.162 581.206 298.453 546.881 364.051" stroke="#525730" stroke-miterlimit="10"/>
<path d="M566.578 249.073C566.578 249.073 551.805 309.024 535.439 364.051" stroke="#525730" stroke-miterlimit="10"/>
<path d="M611.475 263.119C611.475 263.119 581.206 331.904 560.061 364.196" stroke="#525730" stroke-miterlimit="10"/>
<path d="M454.044 364.051H615.531" stroke="#292E4A" stroke-miterlimit="10"/>
<path d="M558.902 445.145C569.78 445.145 578.599 441.644 578.599 437.325C578.599 433.006 569.78 429.505 558.902 429.505C548.024 429.505 539.205 433.006 539.205 437.325C539.205 441.644 548.024 445.145 558.902 445.145Z" fill="#C3C4C9"/>
<path d="M485.038 445.145C495.917 445.145 504.735 441.644 504.735 437.325C504.735 433.006 495.917 429.505 485.038 429.505C474.16 429.505 465.341 433.006 465.341 437.325C465.341 441.644 474.16 445.145 485.038 445.145Z" fill="#C3C4C9"/>
<path d="M510.384 273.98H497.059C496.48 273.98 495.901 273.69 495.756 273.111L487.211 250.666C487.066 250.086 487.356 249.507 488.08 249.507H501.404C501.984 249.507 502.563 249.797 502.708 250.376L511.253 272.821C511.398 273.401 510.963 273.98 510.384 273.98Z" fill="#CC9B74"/>
<path d="M560.93 425.885L565.419 430.809C565.419 430.809 558.033 436.891 556.15 437.47C554.267 438.049 550.647 437.47 548.764 437.47C546.881 437.47 551.66 435.877 553.253 434.139C554.847 432.546 556.15 425.885 556.15 425.885H560.93Z" fill="#6470B5"/>
<path d="M492.135 426.175C492.135 426.175 496.19 437.325 491.556 437.325C489.818 437.325 481.562 437.325 479.535 437.325C477.507 437.325 466.5 430.954 467.658 429.65C468.817 428.347 474.61 429.94 476.493 429.795C478.376 429.65 482.431 429.361 484.169 427.768C486.052 426.175 485.907 425.596 485.907 425.596L492.135 426.175Z" fill="#6470B5"/>
<path d="M511.542 315.251C511.542 315.251 492.28 379.256 483.01 426.899H493.583C493.583 426.899 517.191 362.314 521.97 353.625L524.432 382.442C524.432 382.442 544.419 415.604 555.571 426.754H562.957C562.957 426.754 542.536 388.524 541.232 373.754C539.929 358.838 540.363 348.846 540.798 340.303C541.232 331.904 544.129 320.753 539.784 315.106H511.542V315.251Z" fill="#3F4152"/>
<path d="M562.957 426.899C562.957 426.899 556.729 415.314 551.081 402.571C546.591 398.227 539.639 392.289 534.136 389.393C528.632 386.497 524.577 382.587 524.577 382.587C524.577 382.587 544.564 415.748 555.716 426.899H562.957Z" fill="#2D2F3B"/>
<path d="M482.866 284.261C482.866 284.261 478.666 281.8 476.493 280.786C474.321 279.917 470.265 278.035 468.527 277.89C466.79 277.745 465.486 278.035 466.5 279.193C467.514 280.351 471.134 283.248 471.569 284.117C472.003 284.985 468.527 283.972 467.803 284.551C467.079 285.13 469.107 286.433 470.555 286.578C472.003 286.723 474.61 286.433 476.493 286.868C478.231 287.302 482.866 289.04 482.866 289.04V284.261Z" fill="#F9C8A2"/>
<path d="M521.97 265.146C521.97 265.146 514.439 276.152 513.28 278.179C512.122 280.207 510.094 284.117 508.356 286.868C507.777 287.737 506.328 290.488 505.025 290.633C503.721 290.778 481.417 282.668 481.417 282.668L479.535 289.474C479.535 289.474 484.024 291.212 486.921 292.805C489.818 294.398 496.48 297.584 498.797 298.453C501.114 299.322 509.949 302.797 511.977 301.349C514.004 299.901 521.391 287.592 521.391 287.592L521.97 265.146Z" fill="#495285"/>
<path d="M498.363 270.504C498.363 270.504 498.363 263.698 497.639 262.25C496.914 260.947 494.742 254.72 494.163 255.01C493.583 255.299 495.032 259.354 494.163 259.644C493.294 259.789 489.238 253.127 488.369 253.127C487.5 253.127 488.225 262.974 489.963 265.002C491.701 267.029 494.018 269.201 494.018 269.636C494.018 270.07 495.611 274.414 495.611 274.414L498.363 270.504Z" fill="#F9C8A2"/>
<path d="M527.329 235.171C527.329 235.171 525.156 246.9 525.591 248.928C526.025 251.1 529.646 250.955 530.95 252.982C532.108 255.01 531.819 260.947 531.819 260.947H542.102C542.102 260.947 541.233 253.851 541.667 251.245C542.102 248.638 544.419 238.501 541.667 235.605C538.915 232.709 528.777 233.578 527.329 235.171Z" fill="#F9C8A2"/>
<path d="M522.839 234.592C523.708 238.936 533.122 237.198 534.86 238.212C536.598 239.226 536.163 243.715 536.743 244.873C537.322 246.032 538.191 243.28 539.784 244.294C541.232 245.308 540.508 248.493 538.77 248.493C540.074 250.666 540.508 252.693 541.667 252.403C542.826 252.114 544.708 247.045 544.853 243.57C544.998 239.95 543.405 237.488 543.839 235.46C544.274 233.288 540.653 231.261 537.467 231.261C534.425 231.116 521.825 229.523 522.839 234.592Z" fill="#995417"/>
<path d="M528.343 260.947C528.343 260.947 527.039 259.499 529.791 258.92C532.688 258.34 544.564 258.63 544.998 259.933C545.577 261.237 543.695 262.25 544.998 264.567C546.302 266.884 546.736 276.586 545.143 285.42C543.55 294.398 539.929 304.68 540.943 308.445C541.957 312.21 543.984 317.568 540.219 317.568C536.453 317.568 517.77 317.568 513.715 317.568C509.659 317.568 509.949 316.119 510.963 312.21C511.977 308.3 512.122 306.707 512.122 306.707C512.122 306.707 508.356 308.734 506.908 305.548C505.459 302.363 493.149 272.677 493.728 271.663C494.307 270.649 497.639 268.332 498.507 269.201C499.521 270.07 509.659 287.013 511.397 288.026C512.701 288.75 517.046 284.261 517.046 284.261C517.046 284.261 519.942 272.242 520.522 269.636C521.101 265.726 523.708 260.947 528.343 260.947Z" fill="#6470B5"/>
<path d="M517.046 284.261C517.046 284.261 521.246 279.772 523.129 278.324C525.012 276.876 529.067 273.256 530.081 271.808C531.239 270.36 529.212 271.663 527.619 272.677C526.025 273.69 522.984 276.731 521.536 277.745C520.087 278.903 517.77 281.076 517.77 281.076L517.046 284.261Z" fill="#495285"/>
<path d="M511.977 306.562C511.977 306.562 516.611 302.652 517.77 301.494C518.929 300.48 524.287 296.425 526.17 294.688C528.198 293.095 532.688 288.75 533.846 287.882C535.15 287.013 536.164 284.261 536.888 285.13C537.612 285.999 535.15 289.619 533.846 290.488C532.543 291.357 524.577 297.729 522.549 299.611C520.522 301.494 511.397 309.169 511.397 309.169L511.977 306.562Z" fill="#495285"/>
<path d="M521.97 353.625C521.97 353.625 524.722 343.923 527.184 341.461C529.646 338.999 531.674 335.09 532.108 333.641C534.425 335.958 529.791 338.999 528.343 343.633C526.894 348.267 522.404 360.286 522.404 360.286L521.97 353.625Z" fill="#2D2F3B"/>
<path d="M606.696 136.266C619.094 136.266 629.145 126.217 629.145 113.82C629.145 101.424 619.094 91.3749 606.696 91.3749C594.298 91.3749 584.247 101.424 584.247 113.82C584.247 126.217 594.298 136.266 606.696 136.266Z" fill="#FFD817"/>
<path d="M59.2359 136.266C71.634 136.266 81.6847 126.217 81.6847 113.82C81.6847 101.424 71.634 91.3749 59.2359 91.3749C46.8378 91.3749 36.7871 101.424 36.7871 113.82C36.7871 126.217 46.8378 136.266 59.2359 136.266Z" fill="#FFD817"/>
<path d="M615.82 167.834C610.317 169.862 608.724 171.455 606.696 176.957C604.668 171.455 603.075 169.862 597.572 167.834C603.075 165.807 604.668 164.214 606.696 158.711C608.724 164.214 610.317 165.807 615.82 167.834Z" fill="#FFD817"/>
<path d="M205.805 119.323C200.301 121.35 198.708 122.943 196.68 128.446C194.653 122.943 193.059 121.35 187.556 119.323C193.059 117.296 194.653 115.703 196.68 110.2C198.708 115.703 200.301 117.441 205.805 119.323Z" fill="#FFD817"/>
<path d="M100.657 42.8637C95.1538 44.891 93.5607 46.4839 91.533 51.9867C89.5054 46.4839 87.9123 44.891 82.4087 42.8637C87.9123 40.8363 89.5054 39.2434 91.533 33.7407C93.4158 39.2434 95.009 40.8363 100.657 42.8637Z" fill="#FFD817"/>
<path d="M216.667 347.254C216.667 347.254 201.315 332.338 199.287 314.961C197.115 297.584 197.115 279.338 182.342 277.6C167.424 275.862 172.204 304.824 166.7 305.259C161.197 305.693 158.59 227.206 136.575 225.903C114.561 224.6 118.906 258.63 122.092 276.876C124.12 288.316 124.554 293.964 118.182 293.964C107.464 293.964 108.044 262.54 104.278 237.053C100.512 211.567 93.2709 192.018 65.6082 192.018C37.9456 192.018 54.1666 230.247 63.0013 246.321C71.836 262.395 82.9879 281.51 73.1394 284.117C63.4358 286.723 56.1942 260.368 39.9732 262.105C23.897 263.843 17.0899 293.964 32.7317 310.037C48.3734 326.111 8.11043 316.409 10.2829 347.398H216.667V347.254Z" fill="#79943C"/>
<path d="M70.2429 191.294C70.2429 191.294 99.6436 286.434 110.506 347.254" stroke="#525730" stroke-width="0.8793" stroke-miterlimit="10"/>
<path d="M33.0212 264.857C33.0212 264.857 52.8631 309.169 92.257 347.254" stroke="#525730" stroke-width="0.8793" stroke-miterlimit="10"/>
<path d="M132.085 226.048C132.085 226.048 145.7 283.537 142.803 347.254" stroke="#525730" stroke-width="0.8793" stroke-miterlimit="10"/>
<path d="M185.239 279.193C185.239 279.193 183.066 311.051 178.142 347.254" stroke="#525730" stroke-width="0.8793" stroke-miterlimit="10"/>
<path d="M0 347.398H234.047" stroke="#292E4A" stroke-width="0.8793" stroke-miterlimit="10"/>
<path d="M83.5673 445.145C94.4457 445.145 103.264 441.644 103.264 437.325C103.264 433.006 94.4457 429.505 83.5673 429.505C72.689 429.505 63.8704 433.006 63.8704 437.325C63.8704 441.644 72.689 445.145 83.5673 445.145Z" fill="#C3C4C9"/>
<path d="M52.8632 445.145C63.7416 445.145 72.5602 441.644 72.5602 437.325C72.5602 433.006 63.7416 429.505 52.8632 429.505C41.9849 429.505 33.1663 433.006 33.1663 437.325C33.1663 441.644 41.9849 445.145 52.8632 445.145Z" fill="#C3C4C9"/>
<path d="M57.9324 257.472L66.1877 255.879C66.1877 255.879 73.5741 260.223 74.7327 268.332C75.8914 276.442 77.6294 314.382 77.6294 314.382L60.1048 313.513L57.9324 257.472Z" fill="white"/>
<path d="M81.2501 417.486C81.2501 417.486 81.395 425.016 83.7123 428.492C86.0296 431.967 91.8228 434.719 91.8228 434.719C91.8228 434.719 97.1815 435.587 96.0229 436.891C94.8642 438.194 73.7189 436.891 71.6913 436.891C69.6637 436.891 72.9948 431.243 73.4293 429.505C73.8638 427.768 73.8638 417.341 73.8638 417.341H81.2501V417.486Z" fill="#A83E63"/>
<path d="M55.0358 417.486C55.0358 417.486 52.7185 425.016 55.0358 428.492C57.353 431.967 63.1463 434.719 63.1463 434.719C63.1463 434.719 68.505 435.587 67.3464 436.891C66.1877 438.194 45.0424 436.891 43.0148 436.891C40.9872 436.891 44.3183 431.243 44.7528 429.505C45.1873 427.768 47.5046 417.341 47.5046 417.341H55.0358V417.486Z" fill="#A83E63"/>
<path d="M49.3872 310.906H82.5534C82.5534 310.906 88.2018 353.336 87.0432 376.071C85.8845 398.806 83.2776 419.803 83.2776 419.803H71.1118L72.9946 376.65L68.2152 344.792C68.2152 344.792 68.2152 385.049 57.0632 419.803H45.6216L53.1528 373.899L49.3872 310.906Z" fill="#3F4152"/>
<path d="M68.2151 330.6C66.622 330.6 68.2151 344.647 68.2151 344.647L72.9946 376.505C76.036 363.472 69.8083 330.6 68.2151 330.6Z" fill="#2D2F3B"/>
<path d="M72.705 383.746L71.1118 419.803H83.2776C83.2776 419.803 84.0018 413.576 84.8707 404.164L72.705 383.746Z" fill="#2D2F3B"/>
<path d="M106.016 279.193C106.016 279.193 108.189 277.31 108.478 276.586C108.623 276.007 108.478 274.704 111.085 273.111C113.692 271.663 114.996 271.518 114.851 271.953C114.851 272.387 111.52 273.545 112.389 274.125C113.258 274.704 117.747 274.559 118.182 274.269C118.616 273.98 121.223 272.097 121.803 272.821C122.382 273.545 120.354 276.007 119.775 276.876C119.051 277.89 114.706 280.351 110.796 280.496C106.885 280.786 106.451 282.379 106.451 282.379L106.016 279.193Z" fill="#CC9B74"/>
<path d="M65.4634 256.458C65.4634 256.458 69.5187 258.051 71.4015 263.409C73.2843 268.912 74.2981 274.125 73.7188 279.193C73.1394 284.406 74.1533 294.832 74.7326 301.059C75.3119 307.286 73.8636 316.988 76.3257 317.423C78.7878 317.857 81.8293 318.002 83.2776 316.264C84.7259 314.527 83.2776 302.942 83.2776 302.942C83.2776 302.942 109.057 282.958 109.202 281.944C109.492 280.931 107.754 277.6 106.595 277.89C105.437 278.179 83.4224 289.619 83.4224 289.619C83.4224 289.619 82.9879 280.351 81.6845 275.428C80.381 270.649 75.6016 259.933 73.1394 258.485C70.6773 257.182 64.7393 255.444 64.7393 255.444L65.4634 256.458Z" fill="#DC5181"/>
<path d="M83.2776 302.797C83.2776 302.797 93.4157 294.832 101.092 288.75C99.6434 286.144 88.7811 292.805 87.0432 292.371C85.3052 291.791 87.188 287.592 88.057 287.158C85.3052 288.606 83.4224 289.474 83.4224 289.474C83.7121 292.95 82.9879 299.901 83.2776 302.797Z" fill="#A83E63"/>
<path d="M85.3053 290.488L76.7603 292.226C76.0362 292.371 75.4569 291.791 75.6017 291.067L80.9604 270.215C81.1053 269.78 81.3949 269.491 81.8294 269.346L90.3744 267.608C91.0986 267.463 91.6779 268.043 91.5331 268.767L86.0295 289.619C86.0295 290.054 85.595 290.343 85.3053 290.488Z" fill="#6470B5"/>
<path d="M83.5674 272.097C83.4226 272.821 82.9881 273.256 82.4088 273.111C81.9743 272.966 81.6846 272.387 81.9743 271.663C82.1191 270.939 82.5536 270.504 83.1329 270.649C83.5674 270.794 83.7122 271.373 83.5674 272.097Z" fill="#292E4A"/>
<path d="M67.636 288.606C67.636 288.606 70.0981 287.447 70.9671 286.723C71.8361 285.999 75.8913 281.076 77.1948 280.641C78.4983 280.207 81.2501 279.193 81.6846 280.641C82.1191 282.089 78.9328 282.958 78.6431 283.537C78.3535 283.972 80.2363 283.537 80.3811 283.827C80.3811 284.261 78.9328 284.551 78.3535 285.13C77.919 285.854 76.181 290.923 73.1396 290.923C70.2429 290.923 67.636 292.371 67.636 292.371V288.606Z" fill="#CC9B74"/>
<path d="M77.3397 233.723C77.919 234.881 77.4845 238.357 76.7604 240.239C76.0362 242.122 75.6017 245.887 75.6017 245.887C75.6017 245.887 73.4293 246.032 72.9948 247.045C72.5603 248.204 71.5465 251.1 69.5188 251.39C67.4912 251.679 66.6222 252.114 66.6222 252.114L65.8981 258.051C65.8981 258.051 61.1187 259.499 57.9324 256.458C57.9324 256.458 59.2358 249.652 59.3807 246.611C59.5255 243.425 60.5393 232.854 65.6084 231.116C70.6775 229.234 77.3397 233.723 77.3397 233.723Z" fill="#F9C8A2"/>
<path d="M57.9323 255.444C57.9323 255.444 63.1462 259.209 64.16 263.843C65.1738 268.477 67.0566 275.862 65.7531 280.207C64.4497 284.406 64.7393 288.75 64.7393 288.75L69.0842 286.723L69.6636 292.95L65.6083 295.267C65.6083 295.267 65.3186 303.087 65.6083 307.721C65.898 312.354 66.4773 317.133 64.3048 318.292C62.1324 319.45 47.5045 319.305 45.9113 317.278C44.3182 315.395 46.9251 305.259 46.9251 305.259C46.9251 305.259 41.4216 308.3 38.2353 306.272C35.049 304.245 36.4973 296.715 38.2353 291.357C39.9733 285.854 43.8837 271.808 45.0423 266.884C46.201 261.526 51.8494 257.182 57.9323 255.444Z" fill="#DC5181"/>
<path d="M53.7321 272.966C53.7321 272.966 49.8217 289.764 49.6768 291.647C47.2147 292.805 44.4629 294.108 46.3457 293.964C48.2285 293.819 61.6978 290.199 64.8841 288.75V285.854C64.8841 285.854 55.6149 290.199 53.8769 289.04C52.139 287.882 53.7321 285.565 54.0218 283.537C54.1666 281.365 53.7321 272.966 53.7321 272.966Z" fill="#A83E63"/>
<path d="M58.222 301.639C61.6979 299.611 63.4359 296.136 63.4359 296.136L47.07 304.969C47.07 304.969 44.463 315.106 46.0562 316.988C46.4907 317.568 47.939 317.857 49.8218 318.147C48.3735 314.237 54.6012 303.666 58.222 301.639Z" fill="#A83E63"/>
<path d="M63.5806 226.337C63.1461 222.572 59.6702 219.531 55.6149 219.531C51.1252 219.531 47.5044 223.007 47.5044 227.206C47.5044 231.406 51.1252 234.881 55.6149 234.881C56.4839 234.881 57.2081 234.736 57.9322 234.592C57.7874 236.329 57.6426 238.067 57.4977 239.805C57.0632 244.294 59.2357 246.9 59.2357 246.9C59.2357 246.9 62.1323 240.094 66.1876 239.805C67.7807 239.66 68.36 234.881 71.2566 234.881C74.1533 234.881 77.3395 233.578 77.3395 233.578C74.4429 227.062 67.9255 224.889 63.5806 226.337Z" fill="#292E4A"/>
<path d="M230.715 320.753L226.66 333.786" stroke="white" stroke-width="0.9715" stroke-miterlimit="10"/>
<path d="M299.8 416.617H135.272L114.996 316.264H279.379L299.8 416.617Z" fill="#292E4A"/>
<path d="M291.11 407.784H145.7L128.899 325.098H274.31L291.11 407.784Z" fill="#FFD817"/>
<path d="M140.196 416.617H135.272L114.996 316.264H119.92L140.196 416.617Z" fill="#6470B5"/>
<path d="M175.969 407.784L201.459 325.098" stroke="white" stroke-width="0.9005" stroke-miterlimit="10"/>
<path d="M225.357 325.098L199.866 407.784" stroke="white" stroke-width="0.9005" stroke-miterlimit="10"/>
<path d="M226.66 345.371L207.398 407.784" stroke="white" stroke-width="0.9005" stroke-miterlimit="10"/>
<path d="M395.533 416.617H135.272V425.74H395.533V416.617Z" fill="#6470B5"/>
<path d="M395.533 416.617H231.439V425.74H395.533V416.617Z" fill="#292E4A"/>
<path d="M135.272 416.617H395.533" stroke="#6470B5" stroke-width="0.9005" stroke-miterlimit="10" stroke-linecap="round" stroke-linejoin="round"/>
<path d="M180.749 408.363H240.564L254.612 390.696L266.633 399.53L306.317 354.639L316.455 363.617L321.524 328.573L288.937 341.461L295.165 346.53L263.592 375.347L240.854 357.39L180.749 408.363Z" fill="#FFA200"/>
<path d="M121.803 425.451H418.126" stroke="#292E4A" stroke-miterlimit="10"/>
<path d="M383.512 342.33C385.539 342.909 387.422 343.633 389.16 344.502C390.898 345.516 392.346 346.529 393.505 347.688C394.664 348.846 395.678 350.15 396.402 351.453C397.126 352.756 397.416 354.06 397.56 355.218C397.56 355.652 397.416 355.942 397.126 356.232C396.836 356.521 396.547 356.666 396.112 356.666H386.988C386.408 356.666 385.829 356.521 385.395 356.377C384.96 356.232 384.526 355.942 384.236 355.508C384.091 355.363 383.946 355.073 383.512 354.784C383.222 354.494 382.788 354.06 382.208 353.77C381.629 353.48 380.905 353.191 380.181 352.901C379.312 352.611 378.298 352.467 377.139 352.467C376.27 352.467 375.401 352.467 374.532 352.611C373.663 352.756 372.939 352.901 372.36 353.191C371.781 353.48 371.201 353.77 370.767 354.204C370.332 354.639 370.187 355.218 370.187 355.942C370.187 356.666 370.477 357.245 370.912 357.68C371.346 358.114 372.07 358.549 373.084 358.983C374.098 359.417 375.546 359.707 377.284 360.142C379.022 360.576 381.194 361.01 383.657 361.445C386.264 362.024 388.436 362.603 390.319 363.327C392.202 364.051 393.795 365.065 395.098 366.224C396.402 367.382 397.271 368.83 397.995 370.423C398.574 372.016 398.864 373.898 398.864 376.071C398.864 377.953 398.429 379.836 397.705 381.429C396.981 383.021 395.967 384.47 394.519 385.773C393.071 387.076 391.622 388.09 389.595 388.959C387.712 389.828 385.684 390.407 383.367 390.696V395.62C383.367 396.199 383.222 396.634 382.788 396.923C382.353 397.213 381.919 397.502 381.484 397.502H372.36C371.781 397.502 371.346 397.358 371.056 396.923C370.622 396.489 370.477 396.054 370.477 395.62V390.552C368.305 389.972 366.277 389.248 364.539 388.379C362.801 387.366 361.208 386.352 359.904 385.194C358.601 384.035 357.587 382.732 357.008 381.284C356.284 379.836 355.994 378.388 355.849 377.084C355.849 376.65 355.994 376.36 356.284 376.071C356.573 375.781 356.863 375.636 357.297 375.636H366.422C367.001 375.636 367.58 375.781 368.015 375.926C368.449 376.071 368.739 376.36 369.174 376.65C369.318 376.795 369.608 377.084 370.043 377.519C370.477 377.953 370.912 378.388 371.491 378.822C372.07 379.256 372.939 379.691 373.808 379.98C374.822 380.27 375.981 380.415 377.284 380.415C379.746 380.415 381.774 380.125 383.367 379.546C384.96 378.967 385.829 378.098 385.829 376.65C385.829 375.926 385.539 375.347 384.96 374.912C384.381 374.478 383.512 374.043 382.208 373.609C381.05 373.174 379.457 372.885 377.574 372.45C375.691 372.016 373.518 371.582 370.912 371.002C366.132 369.989 362.656 368.251 360.484 365.934C358.311 363.617 357.153 360.431 357.153 356.377C357.153 354.784 357.442 353.191 358.022 351.743C358.601 350.294 359.47 348.846 360.629 347.543C361.787 346.24 363.091 345.226 364.829 344.212C366.422 343.344 368.305 342.62 370.477 342.04V336.972C370.477 336.393 370.622 335.958 371.056 335.669C371.491 335.234 371.925 335.089 372.36 335.089H381.484C382.063 335.089 382.498 335.234 382.788 335.669C383.222 336.103 383.367 336.538 383.367 336.972V342.33H383.512Z" fill="#FFA200"/>
</g>
<defs>
<clipPath id="clip0_120_2">
<rect width="629" height="445" fill="white"/>
</clipPath>
</defs>
</svg>
