<svg width="30" height="30" viewBox="0 0 30 30" fill="none" xmlns="http://www.w3.org/2000/svg">
<path fill-rule="evenodd" clip-rule="evenodd" d="M18.75 26.25C18.75 27.2446 18.3549 28.1984 17.6516 28.9016C16.9483 29.6049 15.9945 30 15 30C14.0054 30 13.0516 29.6049 12.3483 28.9016C11.645 28.1984 11.25 27.2446 11.25 26.25C11.25 25.2554 11.645 24.3016 12.3483 23.5984C13.0516 22.8951 14.0054 22.5 15 22.5C15.9945 22.5 16.9483 22.8951 17.6516 23.5984C18.3549 24.3016 18.75 25.2554 18.75 26.25ZM22.0875 9.67312C21.8238 9.40978 21.4664 9.26186 21.0937 9.26186C20.721 9.26186 20.3636 9.40978 20.1 9.67312L16.4062 13.3669V1.40625C16.4062 1.03329 16.258 0.675604 15.9943 0.411881C15.7306 0.148158 15.3729 0 15 0C14.627 0 14.2693 0.148158 14.0056 0.411881C13.7419 0.675604 13.5937 1.03329 13.5937 1.40625V13.3669L9.89996 9.67312C9.63338 9.42472 9.28079 9.28949 8.91648 9.29592C8.55216 9.30235 8.20456 9.44993 7.94692 9.70758C7.68927 9.96523 7.54168 10.3128 7.53525 10.6771C7.52883 11.0415 7.66406 11.394 7.91246 11.6606L14.0062 17.7544L15 18.75L15.9937 17.7563L22.0875 11.6625C22.2181 11.5319 22.3218 11.3768 22.3925 11.2062C22.4633 11.0355 22.4997 10.8526 22.4997 10.6678C22.4997 10.4831 22.4633 10.3001 22.3925 10.1295C22.3218 9.95878 22.2181 9.80372 22.0875 9.67312Z" fill="white"/>
</svg>
