<svg width="1728" height="94" viewBox="0 0 1728 94" fill="none" xmlns="http://www.w3.org/2000/svg">
<g clip-path="url(#clip0_113_29)">
<path d="M1728 18.7999L1670.4 28.1999C1612.8 37.5999 1497.6 56.3999 1382.4 72.0862C1267.2 87.5375 1152 100.463 1036.8 90.8863C921.6 81.6625 806.4 49.9375 691.2 40.7137C576 31.1375 460.8 44.0625 345.6 40.7138C230.4 37.6 115.2 18.8 57.5999 9.4L-7.68971e-05 -4.58159e-06L57.5999 -9.61714e-06C115.2 -1.46527e-05 230.4 -2.47238e-05 345.6 -3.47949e-05C460.8 -4.4866e-05 576 -5.49371e-05 691.2 -6.50082e-05C806.4 -7.50793e-05 921.6 -8.51504e-05 1036.8 -9.52215e-05C1152 -0.000105293 1267.2 -0.000115364 1382.4 -0.000125435C1497.6 -0.000135506 1612.8 -0.000145577 1670.4 -0.000150613L1728 -0.000155648L1728 18.7999Z" fill="#008FA2"/>
</g>
<defs>
<clipPath id="clip0_113_29">
<rect width="1728" height="94.0002" fill="white" transform="translate(1728 94) rotate(180)"/>
</clipPath>
</defs>
</svg>
