<svg width="1728" height="147" viewBox="0 0 1728 147" fill="none" xmlns="http://www.w3.org/2000/svg">
<g clip-path="url(#clip0_113_29)">
<path d="M1728 29.4L1670.4 44.1C1612.8 58.8 1497.6 88.2 1382.4 112.731C1267.2 136.894 1152 157.106 1036.8 142.131C921.6 127.706 806.4 78.0938 691.2 63.6695C576 48.6938 460.8 68.9064 345.6 63.6695C230.4 58.8001 115.2 29.4001 57.6 14.7001L-0.000134945 0.000120549L57.6 0.000115513C115.2 0.000110478 230.4 0.000100407 345.6 9.03357e-05C460.8 8.02646e-05 576 7.01935e-05 691.2 6.01224e-05C806.4 5.00513e-05 921.6 3.99802e-05 1036.8 2.9909e-05C1152 1.98379e-05 1267.2 9.76684e-06 1382.4 -3.04266e-07C1497.6 -1.03754e-05 1612.8 -2.04465e-05 1670.4 -2.5482e-05L1728 -3.05176e-05L1728 29.4Z" fill="#008FA2"/>
</g>
<defs>
<clipPath id="clip0_113_29">
<rect width="1728" height="147" fill="white" transform="translate(1728 147) rotate(180)"/>
</clipPath>
</defs>
</svg>
