<svg width="24" height="24" viewBox="0 0 24 24" fill="none" xmlns="http://www.w3.org/2000/svg">
<g clip-path="url(#clip0_146_84)">
<path fill-rule="evenodd" clip-rule="evenodd" d="M14 22.0001C13.9999 22.2086 14.0649 22.412 14.186 22.5818C14.3071 22.7516 14.4783 22.8792 14.6756 22.9469C14.8728 23.0145 15.0863 23.0188 15.2862 22.9592C15.486 22.8995 15.6622 22.7788 15.79 22.6141L22.79 13.6141C22.9266 13.4385 23.0007 13.2225 23.0007 13.0001C23.0007 12.7777 22.9266 12.5616 22.79 12.3861L15.79 3.38608C15.6622 3.22133 15.486 3.10067 15.2862 3.041C15.0863 2.98132 14.8728 2.98562 14.6756 3.05329C14.4783 3.12096 14.3071 3.2486 14.186 3.41837C14.0649 3.58814 13.9999 3.79153 14 4.00008L14 7.99008C8.62104 7.87808 6.03704 6.85708 4.73904 5.74708C3.50504 4.69208 3.27904 3.45108 3.04404 2.15108L2.98304 1.81608C2.93817 1.57637 2.80724 1.36132 2.6149 1.2114C2.42256 1.06147 2.18206 0.98699 1.93865 1.00198C1.69523 1.01697 1.46569 1.12039 1.2932 1.29279C1.12071 1.46519 1.01716 1.69468 1.00204 1.93808C0.831041 4.68608 1.08804 8.66808 3.02904 11.9991C4.91304 15.2321 8.30604 17.7181 14 17.9781L14 22.0001Z" fill="#2A2B30"/>
</g>
<defs>
<clipPath id="clip0_146_84">
<rect width="24" height="24" fill="white" transform="translate(24 24) rotate(-180)"/>
</clipPath>
</defs>
</svg>
