<svg width="34" height="34" viewBox="0 0 34 34" fill="none" xmlns="http://www.w3.org/2000/svg">
<g clip-path="url(#clip0_146_86)">
<path fill-rule="evenodd" clip-rule="evenodd" d="M34 17C34 26.3882 26.3882 34 17 34C7.61175 34 0 26.3882 0 17C0 7.61175 7.61175 0 17 0C26.3882 0 34 7.61175 34 17ZM8.5 22.95H21.25V13.6C21.25 13.2651 21.184 12.9335 21.0559 12.6242C20.9277 12.3148 20.7399 12.0337 20.5031 11.7969C20.2663 11.5601 19.9852 11.3723 19.6758 11.2441C19.3665 11.116 19.0349 11.05 18.7 11.05H5.95V20.4C5.95 21.0763 6.21866 21.7249 6.69688 22.2031C6.93367 22.4399 7.21478 22.6277 7.52416 22.7559C7.83354 22.884 8.16513 22.95 8.5 22.95ZM22.95 19.55L28.05 22.95V11.05L22.95 14.45V19.55Z" fill="#2A2B30"/>
</g>
<defs>
<clipPath id="clip0_146_86">
<rect width="34" height="34" fill="white"/>
</clipPath>
</defs>
</svg>
