<svg width="1722" height="188" viewBox="0 0 1722 188" fill="none" xmlns="http://www.w3.org/2000/svg">
<g clip-path="url(#clip0_146_93)">
<path d="M-6 56.3998L35.16 53.286C76.32 49.9373 158.4 44.0623 241.2 40.7135C323.16 37.5998 405.6 37.5998 487.2 53.286C570 68.7373 652.8 100.462 734.4 103.4C816.84 106.337 898.8 81.6623 981.6 81.4861C1063.68 81.6623 1146 106.337 1228.8 128.486C1310.52 150.4 1393.2 169.2 1474.8 147.286C1557.48 125.137 1639.2 62.8623 1681.2 31.3135L1722 -0.000244141V188H1680.84C1639.68 188 1557.6 188 1474.8 188C1392.84 188 1310.4 188 1228.8 188C1146 188 1063.2 188 981.6 188C899.16 188 817.2 188 734.4 188C652.32 188 570 188 487.2 188C405.48 188 322.8 188 241.2 188C158.52 188 76.8 188 34.8 188H-6L-6 56.3998Z" fill="#F9FFFF"/>
</g>
<defs>
<clipPath id="clip0_146_93">
<rect width="1728" height="188" fill="white" transform="translate(-6)"/>
</clipPath>
</defs>
</svg>
