<svg width="79" height="83" viewBox="0 0 79 83" fill="none" xmlns="http://www.w3.org/2000/svg">
<path d="M67.2861 41.5L36.4437 80.9071C35.9673 81.5114 36.3972 82.4063 37.1759 82.4063L46.159 82.4063C46.7284 82.4063 47.2746 82.139 47.6232 81.6974L77.2919 43.7894C77.8057 43.1346 78.085 42.3265 78.085 41.4942C78.085 40.6619 77.8057 39.8537 77.2919 39.199L47.6232 1.30264C47.2746 0.849414 46.7284 0.593753 46.1589 0.593753L37.1758 0.593754C36.3972 0.593754 35.9673 1.48858 36.4437 2.09288L67.2861 41.5ZM31.958 41.5L1.1156 80.9071C0.639137 81.5114 1.06911 82.4063 1.84772 82.4063L10.8308 82.4063C11.4003 82.4063 11.9465 82.139 12.2951 81.6974L41.9637 43.7894C42.4776 43.1346 42.7568 42.3265 42.7568 41.4942C42.7568 40.6619 42.4776 39.8537 41.9637 39.199L12.2951 1.30264C11.9465 0.849417 11.4003 0.593756 10.8308 0.593756L1.84772 0.593757C1.06911 0.593757 0.63913 1.48859 1.11559 2.09288L31.958 41.5Z" fill="#046F7D"/>
</svg>
