<svg width="24" height="24" viewBox="0 0 24 24" fill="none" xmlns="http://www.w3.org/2000/svg">
<path fill-rule="evenodd" clip-rule="evenodd" d="M17.4 19.8C17.1206 20.1726 16.7582 20.475 16.3416 20.6833C15.9251 20.8916 15.4657 21 15 21L4 21C3.20435 21 2.44129 20.6839 1.87868 20.1213C1.31607 19.5587 1 18.7957 1 18L0.999999 6C0.999999 5.20435 1.31607 4.44129 1.87868 3.87868C2.44129 3.31607 3.20435 3 4 3L15 3C15.4657 3 15.9251 3.10844 16.3416 3.31672C16.7582 3.525 17.1206 3.82741 17.4 4.2L21.9 10.2C22.2895 10.7193 22.5 11.3509 22.5 12C22.5 12.6491 22.2895 13.2807 21.9 13.8L17.4 19.8Z" fill="#046F7D"/>
</svg>
