<svg width="24" height="24" viewBox="0 0 24 24" fill="none" xmlns="http://www.w3.org/2000/svg">
<path fill-rule="evenodd" clip-rule="evenodd" d="M6.6 4.2C6.87944 3.82741 7.24179 3.525 7.65836 3.31672C8.07493 3.10844 8.53426 3 9 3H20C20.7956 3 21.5587 3.31607 22.1213 3.87868C22.6839 4.44129 23 5.20435 23 6V18C23 18.7956 22.6839 19.5587 22.1213 20.1213C21.5587 20.6839 20.7956 21 20 21H9C8.53426 21 8.07493 20.8916 7.65836 20.6833C7.24179 20.475 6.87944 20.1726 6.6 19.8L2.1 13.8C1.71053 13.2807 1.5 12.6491 1.5 12C1.5 11.3509 1.71053 10.7193 2.1 10.2L6.6 4.2Z" fill="#046F7D"/>
</svg>
