<svg width="79" height="83" viewBox="0 0 79 83" fill="none" xmlns="http://www.w3.org/2000/svg">
<path d="M11.714 41.5L42.5564 2.09287C43.0329 1.48857 42.6029 0.59375 41.8243 0.59375H32.8412C32.2717 0.59375 31.7255 0.861036 31.3769 1.30264L1.70825 39.2106C1.19443 39.8654 0.915161 40.6735 0.915161 41.5058C0.915161 42.3381 1.19443 43.1463 1.70825 43.801L31.3769 81.6974C31.7255 82.1506 32.2717 82.4062 32.8412 82.4062H41.8243C42.6029 82.4062 43.0329 81.5114 42.5564 80.9071L11.714 41.5ZM47.0421 41.5L77.8845 2.09287C78.361 1.48857 77.931 0.59375 77.1524 0.59375H68.1693C67.5999 0.59375 67.0537 0.861036 66.705 1.30264L37.0364 39.2106C36.5226 39.8654 36.2433 40.6735 36.2433 41.5058C36.2433 42.3381 36.5226 43.1463 37.0364 43.801L66.705 81.6974C67.0537 82.1506 67.5999 82.4062 68.1693 82.4062H77.1524C77.931 82.4062 78.361 81.5114 77.8845 80.9071L47.0421 41.5Z" fill="#046F7D"/>
</svg>
