<svg width="68" height="71" viewBox="0 0 68 71" fill="none" xmlns="http://www.w3.org/2000/svg">
<g clip-path="url(#clip0_169_6)">
<path d="M30.5199 6.35315H5.43413C4.23475 6.35315 3.08449 6.82615 2.2364 7.66811C1.38832 8.51006 0.911865 9.652 0.911865 10.8427V69.8846H11.5776V63.5314H24.3764V69.8846H35.0421V31.0033C33.5084 29.8712 32.4449 28.2212 32.052 26.3644C31.659 24.5075 31.9639 22.5721 32.909 20.923L35.0421 17.4288V10.8427C35.0421 9.652 34.5657 8.51006 33.7176 7.66811C32.8695 6.82615 31.7192 6.35315 30.5199 6.35315V6.35315ZM11.5776 52.9429H7.31129V48.7074H11.5776V52.9429ZM11.5776 42.3543H7.31129V38.1189H11.5776V42.3543ZM11.5776 31.7657H7.31129V27.5303H11.5776V31.7657ZM11.5776 21.1771H7.31129V16.9417H11.5776V21.1771ZM20.1101 52.9429H15.8439V48.7074H20.1101V52.9429ZM20.1101 42.3543H15.8439V38.1189H20.1101V42.3543ZM20.1101 31.7657H15.8439V27.5303H20.1101V31.7657ZM20.1101 21.1771H15.8439V16.9417H20.1101V21.1771ZM28.6427 52.9429H24.3764V48.7074H28.6427V52.9429ZM28.6427 42.3543H24.3764V38.1189H28.6427V42.3543ZM28.6427 31.7657H24.3764V27.5303H28.6427V31.7657ZM28.6427 21.1771H24.3764V16.9417H28.6427V21.1771Z" fill="#046F7D"/>
<path d="M39.7992 32.6128H39.3086V69.8846H62.7732V32.6128H39.7992ZM47.8412 52.9428H43.5749V48.7074H47.8412V52.9428ZM47.8412 42.3543H43.5749V38.1189H47.8412V42.3543ZM56.3737 52.9428H52.1074V48.7074H56.3737V52.9428ZM56.3737 42.3543H52.1074V38.1189H56.3737V42.3543Z" fill="#046F7D"/>
<path d="M49.6543 2.41419L37.4527 23.2949C37.1688 23.7085 37.0058 24.1921 36.9819 24.6921C36.9579 25.192 37.0738 25.6888 37.3167 26.1274C37.5597 26.566 37.9203 26.9292 38.3584 27.1768C38.7966 27.4244 39.2952 27.5468 39.7991 27.5303H64.2236C64.7275 27.5468 65.2262 27.4244 65.6643 27.1768C66.1025 26.9292 66.463 26.566 66.706 26.1274C66.949 25.6888 67.0649 25.192 67.0409 24.6921C67.0169 24.1921 66.8539 23.7085 66.5701 23.2949L54.3685 2.41419C54.1279 2.00559 53.7837 1.66666 53.3701 1.43112C52.9566 1.19559 52.4881 1.07166 52.0114 1.07166C51.5346 1.07166 51.0662 1.19559 50.6526 1.43112C50.2391 1.66666 49.8949 2.00559 49.6543 2.41419V2.41419Z" fill="#046F7D"/>
</g>
<defs>
<clipPath id="clip0_169_6">
<rect width="68" height="71" fill="white"/>
</clipPath>
</defs>
</svg>
