<svg width="133" height="115" viewBox="0 0 133 115" fill="none" xmlns="http://www.w3.org/2000/svg">
<g clip-path="url(#clip0_169_23)">
<path d="M78.8738 47.1002L66.5 41.515L78.8738 35.9298L84.5201 23.69L90.1664 35.9298L102.54 41.515L90.1664 47.1002L84.5201 59.34L78.8738 47.1002ZM18.4464 71.2233L24.0927 58.9835L36.4665 53.3983L24.0927 47.8132L18.4464 35.5733L12.8001 47.8132L0.42627 53.3983L12.8001 58.9835L18.4464 71.2233ZM45.4765 41.515L52.0238 27.1956L66.5 20.7192L52.0238 14.2428L45.4765 -0.0766602L38.9292 14.2428L24.4531 20.7192L38.9292 27.1956L45.4765 41.515ZM21.4497 109.844L57.4899 74.1348L81.5167 97.9014L132.574 41.0991L124.104 32.7213L81.5167 80.0764L57.4899 56.3098L12.4397 100.932L21.4497 109.844Z" fill="#046F7D"/>
</g>
<defs>
<clipPath id="clip0_169_23">
<rect width="133" height="115" fill="white"/>
</clipPath>
</defs>
</svg>
