<svg width="58" height="74" viewBox="0 0 58 74" fill="none" xmlns="http://www.w3.org/2000/svg">
<g clip-path="url(#clip0_169_7)">
<path d="M24.7891 38.5113L28.7041 35.5848L32.5829 38.4756C33.9966 39.5106 35.9179 38.1901 35.4104 36.5127L33.8879 31.659L38.2379 28.2685C39.5791 27.2693 38.8179 25.1279 37.0779 25.1279H32.0029L30.4441 20.3456C30.3249 19.9886 30.0943 19.6777 29.7851 19.4574C29.4759 19.237 29.1039 19.1183 28.7222 19.1183C28.3405 19.1183 27.9686 19.237 27.6594 19.4574C27.3502 19.6777 27.1195 19.9886 27.0004 20.3456L25.4054 25.1279H20.2941C18.5904 25.1279 17.8291 27.2693 19.1704 28.3042L23.4841 31.6947L21.9616 36.5484C21.4541 38.2258 23.3754 39.5463 24.7891 38.5113V38.5113ZM6.9541 70.1317C6.9541 72.5586 9.38285 74.2716 11.7391 73.5222L28.7041 67.9547L45.6691 73.5222C46.2152 73.7054 46.7979 73.7575 47.3686 73.6739C47.9393 73.5904 48.4814 73.3736 48.9497 73.0418C49.418 72.71 49.7989 72.2727 50.0606 71.7665C50.3223 71.2603 50.4572 70.6997 50.4541 70.1317V47.5406C55.1283 42.3425 57.7073 35.6392 57.7041 28.6968C57.7041 12.9223 44.7266 0.14563 28.7041 0.14563C12.6816 0.14563 -0.295898 12.9223 -0.295898 28.6968C-0.295898 35.9417 2.4591 42.5084 6.9541 47.5406V70.1317ZM28.7041 7.28343C40.7029 7.28343 50.4541 16.8838 50.4541 28.6968C50.4541 40.5099 40.7029 50.1102 28.7041 50.1102C16.7054 50.1102 6.9541 40.5099 6.9541 28.6968C6.9541 16.8838 16.7054 7.28343 28.7041 7.28343Z" fill="#046F7D"/>
</g>
<defs>
<clipPath id="clip0_169_7">
<rect width="58" height="74" fill="white"/>
</clipPath>
</defs>
</svg>
