<svg width="71" height="73" viewBox="0 0 71 73" fill="none" xmlns="http://www.w3.org/2000/svg">
<g clip-path="url(#clip0_169_21)">
<path d="M71 11.4062C71 13.9727 69.017 16.3395 65.675 18.25C61.6396 20.5455 55.6213 22.1709 48.7154 22.6557C48.2023 22.399 47.6893 22.1566 47.1484 21.9428C41.6848 19.5902 34.4184 18.25 26.625 18.25C25.474 18.25 24.3508 18.2785 23.2275 18.3355L23.075 18.25C19.733 16.3395 17.75 13.9727 17.75 11.4062C17.75 5.1043 29.6758 0 44.375 0C59.0742 0 71 5.1043 71 11.4062ZM22.2846 22.9693C23.699 22.8695 25.1551 22.8125 26.625 22.8125C35.2504 22.8125 42.9051 24.5662 47.7725 27.2895C51.2115 29.2143 53.25 31.6096 53.25 34.2188C53.25 34.7891 53.1529 35.3451 52.9588 35.8869C52.3209 37.7689 50.6014 39.4941 48.1053 40.9484C48.0914 40.9627 48.0637 40.9627 48.0498 40.977C48.0082 41.0055 47.9666 41.0197 47.925 41.0482C43.0715 43.8143 35.3336 45.6107 26.625 45.6107C18.3602 45.6107 10.9689 43.9996 6.07383 41.4617C5.81035 41.3334 5.56074 41.1908 5.31113 41.0482C1.98301 39.152 0 36.7852 0 34.2188C0 29.257 7.40508 25.0225 17.75 23.4684C19.2061 23.2545 20.7176 23.0834 22.2846 22.9693ZM57.6875 34.2188C57.6875 31.0963 56.2176 28.5299 54.3455 26.6051C58.2699 25.9777 61.8615 24.9797 64.9123 23.6822C67.1727 22.7127 69.2805 21.515 71 20.0465V25.0938C71 27.8455 68.7119 30.3834 64.9262 32.351C62.9016 33.4061 60.4332 34.3043 57.6598 34.9887C57.6736 34.732 57.6875 34.4896 57.6875 34.233V34.2188ZM53.25 47.9062C53.25 50.4727 51.267 52.8395 47.925 54.75C47.6754 54.8926 47.4258 55.0209 47.1623 55.1635C42.2811 57.7014 34.8898 59.3125 26.625 59.3125C17.9164 59.3125 10.1785 57.516 5.325 54.75C1.98301 52.8395 0 50.4727 0 47.9062V42.859C1.7334 44.3275 3.82734 45.5252 6.0877 46.4947C11.5652 48.8473 18.8316 50.1875 26.625 50.1875C34.4184 50.1875 41.6848 48.8473 47.1623 46.4947C48.2439 46.0385 49.284 45.5109 50.2686 44.9406C51.1145 44.4559 51.9049 43.9141 52.6537 43.3438C52.8617 43.1869 53.0559 43.0158 53.25 42.859V47.9062ZM57.6875 47.9062V39.651C60.3223 39.0521 62.749 38.2965 64.9123 37.3697C67.1727 36.4002 69.2805 35.2025 71 33.734V38.7812C71 40.2783 70.3066 41.7754 68.9338 43.1869C66.6734 45.5109 62.6936 47.4215 57.6598 48.6619C57.6736 48.4195 57.6875 48.1629 57.6875 47.9062V47.9062ZM26.625 63.875C34.4184 63.875 41.6848 62.5348 47.1623 60.1822C49.4227 59.2127 51.5305 58.015 53.25 56.5465V61.5938C53.25 67.8957 41.3242 73 26.625 73C11.9258 73 0 67.8957 0 61.5938V56.5465C1.7334 58.015 3.82734 59.2127 6.0877 60.1822C11.5652 62.5348 18.8316 63.875 26.625 63.875Z" fill="#046F7D"/>
</g>
<defs>
<clipPath id="clip0_169_21">
<rect width="71" height="73" fill="white"/>
</clipPath>
</defs>
</svg>
