<svg width="75" height="69" viewBox="0 0 75 69" fill="none" xmlns="http://www.w3.org/2000/svg">
<path d="M15.8089 1.59448C12.0424 1.59448 8.43021 3.08544 5.76693 5.73937C3.10364 8.39329 1.60742 11.9928 1.60742 15.746V46.6221C1.60742 50.3753 3.10364 53.9748 5.76693 56.6287C8.43021 59.2826 12.0424 60.7736 15.8089 60.7736H28.3164L29.2305 57.1251C29.5868 55.7099 30.0981 54.3462 30.7539 53.0546H15.8089C12.2456 53.0546 9.35366 50.1728 9.35366 46.6221V17.0325H53.249V29.2749L56.5024 26.0277C57.8296 24.7104 59.3582 23.7275 60.9952 23.0894V15.746C60.9952 11.9928 59.499 8.39329 56.8357 5.73937C54.1725 3.08544 50.5603 1.59448 46.7938 1.59448H15.8089ZM48.0229 34.4775C47.9152 34.0039 47.6753 33.5704 47.3309 33.227L37.0026 22.935C36.5177 22.4525 35.8604 22.1817 35.1752 22.1822C34.49 22.1827 33.8331 22.4544 33.3489 22.9376C32.8648 23.4207 32.593 24.0757 32.5935 24.7585C32.594 25.4413 32.8667 26.0959 33.3515 26.5784L41.8517 35.0435L33.3515 43.5139C33.0239 43.8391 32.7899 44.2461 32.6741 44.6922C32.5582 45.1384 32.5648 45.6074 32.693 46.0502C32.8212 46.4929 33.0665 46.8933 33.4031 47.2093C33.7396 47.5254 34.1552 47.7455 34.6064 47.8468L48.0229 34.4775ZM26.6691 26.5835C27.1539 26.101 27.4266 25.4464 27.4271 24.7636C27.4276 24.0809 27.1558 23.4258 26.6717 22.9427C26.1875 22.4596 25.5306 22.1879 24.8454 22.1874C24.1602 22.1869 23.5029 22.4577 23.018 22.9401L12.6897 33.2321C12.4492 33.4712 12.2585 33.7551 12.1283 34.0677C11.9981 34.3803 11.9311 34.7154 11.9311 35.0538C11.9311 35.3923 11.9981 35.7274 12.1283 36.04C12.2585 36.3526 12.4492 36.6365 12.6897 36.8755L23.018 47.1675C23.5029 47.65 24.1602 47.9208 24.8454 47.9203C25.5306 47.9198 26.1875 47.6481 26.6717 47.165C27.1558 46.6818 27.4276 46.0268 27.4271 45.344C27.4266 44.6612 27.1539 44.0066 26.6691 43.5242L18.1689 35.0487L26.6691 26.5784V26.5835ZM71.5559 29.6711C70.8078 28.925 69.9194 28.3332 68.9416 27.9293C67.9638 27.5255 66.9157 27.3177 65.8573 27.3177C64.7988 27.3177 63.7508 27.5255 62.773 27.9293C61.7952 28.3332 60.9068 28.925 60.1587 29.6711L38.0096 51.7372C36.1726 53.5688 34.8696 55.8633 34.2397 58.3755L32.675 64.6125C32.5441 65.1378 32.5518 65.6878 32.6972 66.2092C32.8426 66.7307 33.1208 67.2058 33.5049 67.5885C33.8889 67.9711 34.3657 68.2484 34.889 68.3933C35.4122 68.5382 35.9642 68.5458 36.4913 68.4154L42.7451 66.8562C45.2661 66.2283 47.5687 64.9299 49.4069 63.0996L71.5559 41.0283C72.3047 40.2828 72.8986 39.3976 73.3038 38.4232C73.7091 37.4488 73.9177 36.4045 73.9177 35.3497C73.9177 34.295 73.7091 33.2506 73.3038 32.2762C72.8986 31.3019 72.3047 30.4166 71.5559 29.6711V29.6711Z" fill="#046F7D"/>
</svg>
