<svg width="1728" height="113" viewBox="0 0 1728 113" fill="none" xmlns="http://www.w3.org/2000/svg">
<g clip-path="url(#clip0_126_21)">
<path d="M0 0L57.6 9.40196C115.2 18.9805 230.4 37.5195 345.6 51.777C460.8 65.7695 576 75.4805 691.2 80.027C806.4 84.75 921.6 84.75 1036.8 70.625C1152 56.5 1267.2 28.25 1382.4 28.25C1497.6 28.25 1612.8 56.5 1670.4 70.625L1728 84.75V113H1670.4C1612.8 113 1497.6 113 1382.4 113C1267.2 113 1152 113 1036.8 113C921.6 113 806.4 113 691.2 113C576 113 460.8 113 345.6 113C230.4 113 115.2 113 57.6 113H0V0Z" fill="#ECFEFF"/>
</g>
<defs>
<clipPath id="clip0_126_21">
<rect width="1728" height="113" fill="white"/>
</clipPath>
</defs>
</svg>
