<svg width="1722" height="188" viewBox="0 0 1722 188" fill="none" xmlns="http://www.w3.org/2000/svg">
<g clip-path="url(#clip0_135_54)">
<path d="M1722 131.6L1680.84 134.714C1639.68 138.063 1557.6 143.938 1474.8 147.287C1392.84 150.4 1310.4 150.4 1228.8 134.714C1146 119.263 1063.2 87.538 981.6 84.6005C899.16 81.663 817.2 106.338 734.4 106.514C652.32 106.338 570 81.663 487.2 59.5142C405.48 37.6005 322.8 18.8005 241.2 40.7143C158.52 62.863 76.7999 125.138 34.7999 156.687L-6.00007 188.001L-6.00009 0.000494389L35.16 0.000490791C76.32 0.000487193 158.4 0.000480017 241.2 0.000472778C323.16 0.000465613 405.6 0.000458406 487.2 0.000451272C570 0.000444034 652.8 0.000436795 734.4 0.000429661C816.84 0.000422454 898.8 0.000415289 981.6 0.000408051C1063.68 0.000400875 1146 0.000393678 1228.8 0.00038644C1310.52 0.000379295 1393.2 0.000372067 1474.8 0.000364934C1557.48 0.000357706 1639.2 0.000350561 1681.2 0.00034689L1722 0.000343323L1722 131.6Z" fill="#ECFEFF"/>
</g>
<defs>
<clipPath id="clip0_135_54">
<rect width="1728" height="188" fill="white" transform="translate(1722 188) rotate(180)"/>
</clipPath>
</defs>
</svg>
