<svg width="66" height="76" viewBox="0 0 66 76" fill="none" xmlns="http://www.w3.org/2000/svg">
<g clip-path="url(#clip0_169_15)">
<path d="M29.8052 25.8237H36.1949V29.0517H29.8052V25.8237ZM29.8052 12.9119H36.1949V16.1398H29.8052V12.9119ZM29.8052 32.2796H36.1949V35.5076H29.8052V32.2796Z" fill="#046F7D"/>
<path d="M61.7537 38.7354V29.0515C52.0139 29.0495 42.5773 32.4734 35.0639 38.7354H30.9362C23.4228 32.4734 13.9861 29.0495 4.24637 29.0515V38.7354C3.39904 38.7354 2.58642 39.0755 1.98726 39.6808C1.38811 40.2862 1.05151 41.1072 1.05151 41.9633V48.4193C1.05151 49.2754 1.38811 50.0964 1.98726 50.7018C2.58642 51.3071 3.39904 51.6472 4.24637 51.6472V64.559C14.9238 64.5492 25.2045 68.6464 33 76.0183C40.8038 68.6594 51.0792 64.5644 61.7537 64.559V51.6472C62.601 51.6472 63.4137 51.3071 64.0128 50.7018C64.612 50.0964 64.9486 49.2754 64.9486 48.4193V41.9633C64.9486 41.1072 64.612 40.2862 64.0128 39.6808C63.4137 39.0755 62.601 38.7354 61.7537 38.7354Z" fill="#046F7D"/>
<path d="M23.4156 16.1398C25.18 16.1398 26.6104 14.6945 26.6104 12.9118C26.6104 11.129 25.18 9.68384 23.4156 9.68384C21.6511 9.68384 20.2207 11.129 20.2207 12.9118C20.2207 14.6945 21.6511 16.1398 23.4156 16.1398Z" fill="#046F7D"/>
<path d="M42.5845 16.1398C44.349 16.1398 45.7794 14.6945 45.7794 12.9118C45.7794 11.129 44.349 9.68384 42.5845 9.68384C40.82 9.68384 39.3896 11.129 39.3896 12.9118C39.3896 14.6945 40.82 16.1398 42.5845 16.1398Z" fill="#046F7D"/>
<path d="M45.7794 25.8237H20.2205C17.6793 25.8211 15.2429 24.8 13.446 22.9845C11.6491 21.169 10.6385 18.7073 10.636 16.1398V9.68387C10.6385 7.11634 11.6491 4.65469 13.446 2.83917C15.2429 1.02365 17.6793 0.00256369 20.2205 0L45.7794 0C48.3206 0.00256369 50.757 1.02365 52.5539 2.83917C54.3508 4.65469 55.3614 7.11634 55.3639 9.68387V16.1398C55.3614 18.7073 54.3508 21.169 52.5539 22.9845C50.757 24.8 48.3206 25.8211 45.7794 25.8237ZM20.2205 6.45591C19.3735 6.45677 18.5613 6.79713 17.9624 7.4023C17.3634 8.00748 17.0265 8.82803 17.0257 9.68387V16.1398C17.0265 16.9956 17.3634 17.8162 17.9624 18.4214C18.5613 19.0265 19.3735 19.3669 20.2205 19.3677H45.7794C46.6264 19.3669 47.4386 19.0265 48.0375 18.4214C48.6365 17.8162 48.9734 16.9956 48.9742 16.1398V9.68387C48.9734 8.82803 48.6365 8.00748 48.0375 7.4023C47.4386 6.79713 46.6264 6.45677 45.7794 6.45591H20.2205Z" fill="#046F7D"/>
</g>
<defs>
<clipPath id="clip0_169_15">
<rect width="66" height="76" fill="white"/>
</clipPath>
</defs>
</svg>
